#!OML:ASF C:\Vicon Data\Big\jianyuan-13\jianyuan\Session 1\Capture.male.ASF
:FULLY-SPECIFIED
:DEGREES
1
root -7.733500 16.610600 -23.999400 7.426558 12.853996 3.357387
lowerback -12.853600 -0.719892 -2.137010 
upperback 2.220390 -0.676541 0.654933 
thorax 9.665330 -0.467677 1.770760 
lowerneck 0.278604 -3.499610 5.695870 
upperneck 13.418800 -5.241600 -4.587120 
head 4.101430 -2.841520 -2.753810 
rclavicle 0.000000 0.000000 
rhumerus -49.065800 -21.462400 -68.529700 
rradius 34.814400 
rwrist 26.095200 
rhand -17.673800 -17.823500 
rfingers 0.000000 
rthumb 8.585170 -47.628900 
lclavicle 0.000000 0.000000 
lhumerus -35.956900 19.331700 80.315900 
lradius 32.288800 
lwrist -43.887100 
lhand -18.752600 0.602625 
lfingers 0.000000 
lthumb 7.544000 30.448100 
rfemur -40.895900 6.010810 8.239050 
rtibia 27.697300 
rfoot -6.068840 -11.191300 
rtoes -33.679100 
lfemur 9.306880 -5.403380 -24.445300 
ltibia 21.181700 
lfoot -15.572200 -0.881685 
ltoes -36.398100 
2
root -7.744569 16.619226 -23.899880 7.458894 12.583197 3.085246
lowerback -12.804839 -0.614893 -1.765241 
upperback 2.316028 -0.608747 0.771221 
thorax 9.735160 -0.419709 1.699907 
lowerneck 0.155369 -3.466637 5.609316 
upperneck 13.243740 -5.184097 -4.489428 
head 4.069024 -2.804234 -2.700628 
rclavicle 0.000000 0.000000 
rhumerus -48.819198 -21.626172 -68.481408 
rradius 34.628281 
rwrist 26.276371 
rhand -17.626988 -17.862581 
rfingers 0.000000 
rthumb 8.630343 -47.666115 
lclavicle 0.000000 0.000000 
lhumerus -35.902684 19.580558 80.366543 
lradius 32.386402 
lwrist -43.655099 
lhand -18.990152 0.679309 
lfingers 0.000000 
lthumb 7.314639 30.532842 
rfemur -40.861794 5.900209 8.723321 
rtibia 27.549747 
rfoot -4.813447 -10.969459 
rtoes -32.020207 
lfemur 9.122441 -5.196335 -24.080180 
ltibia 21.951481 
lfoot -15.213412 -0.714337 
ltoes -36.192918 
3
root -7.750928 16.622478 -23.849412 7.488000 12.412933 2.973289
lowerback -12.744206 -0.567504 -1.576970 
upperback 2.332433 -0.581092 0.808320 
thorax 9.714514 -0.397098 1.639214 
lowerneck 0.125174 -3.423243 5.588200 
upperneck 13.171078 -5.119023 -4.466763 
head 4.053321 -2.768979 -2.685793 
rclavicle 0.000000 0.000000 
rhumerus -48.710297 -21.607419 -68.529654 
rradius 34.517113 
rwrist 26.323977 
rhand -17.613880 -17.909161 
rfingers 0.000000 
rthumb 8.642997 -47.712176 
lclavicle 0.000000 0.000000 
lhumerus -35.971209 19.775535 80.296871 
lradius 32.448391 
lwrist -43.575189 
lhand -19.069254 0.629448 
lfingers 0.000000 
lthumb 7.238305 30.485632 
rfemur -40.880459 5.915876 8.908053 
rtibia 27.538153 
rfoot -4.168087 -10.861824 
rtoes -30.945266 
lfemur 9.002667 -4.999612 -23.908514 
ltibia 22.345608 
lfoot -14.991813 -0.648314 
ltoes -36.054318 
4
root -7.758788 16.624800 -23.798390 7.532494 12.250235 2.867101
lowerback -12.714522 -0.529711 -1.455425 
upperback 2.355853 -0.559014 0.887102 
thorax 9.721521 -0.382822 1.659885 
lowerneck 0.081803 -3.390720 5.563643 
upperneck 13.084053 -5.057640 -4.533485 
head 4.032720 -2.739086 -2.701092 
rclavicle 0.000000 0.000000 
rhumerus -48.566229 -21.573043 -68.528024 
rradius 34.421708 
rwrist 26.224859 
rhand -17.551348 -17.910410 
rfingers 0.000000 
rthumb 8.703335 -47.710972 
lclavicle 0.000000 0.000000 
lhumerus -36.031987 19.955187 80.295363 
lradius 32.529153 
lwrist -43.391078 
lhand -19.076404 0.564868 
lfingers 0.000000 
lthumb 7.231428 30.421314 
rfemur -40.924921 5.939480 9.089323 
rtibia 27.581991 
rfoot -3.547839 -10.805744 
rtoes -30.083682 
lfemur 8.862195 -4.809844 -23.739297 
ltibia 22.747843 
lfoot -14.770483 -0.526038 
ltoes -36.263839 
5
root -7.766220 16.622353 -23.746758 7.557458 12.061549 2.844329
lowerback -12.659269 -0.486183 -1.360658 
upperback 2.411224 -0.517025 0.889108 
thorax 9.747372 -0.357923 1.617371 
lowerneck 0.010276 -3.361539 5.573691 
upperneck 12.973626 -5.004329 -4.552760 
head 4.009158 -2.707994 -2.706570 
rclavicle 0.000000 0.000000 
rhumerus -48.382236 -21.684260 -68.551862 
rradius 34.267710 
rwrist 26.289742 
rhand -17.544402 -17.830609 
rfingers 0.000000 
rthumb 8.710060 -47.630855 
lclavicle 0.000000 0.000000 
lhumerus -36.070190 20.227348 80.187462 
lradius 32.645343 
lwrist -43.354216 
lhand -19.043015 0.492711 
lfingers 0.000000 
lthumb 7.263609 30.348064 
rfemur -40.947101 5.938423 9.228498 
rtibia 27.686262 
rfoot -2.895615 -10.692790 
rtoes -30.240048 
lfemur 8.771177 -4.635757 -23.692805 
ltibia 23.168003 
lfoot -14.573071 -0.309157 
ltoes -37.001074 
6
root -7.773782 16.623139 -23.695000 7.592182 11.857060 2.780823
lowerback -12.653831 -0.437467 -1.261635 
upperback 2.449955 -0.471902 0.923446 
thorax 9.784319 -0.332538 1.607810 
lowerneck 0.025456 -3.330357 5.561919 
upperneck 12.827961 -4.947004 -4.553730 
head 3.957307 -2.675727 -2.697291 
rclavicle 0.000000 0.000000 
rhumerus -48.269756 -21.753778 -68.529985 
rradius 34.146266 
rwrist 26.513707 
rhand -17.536122 -17.839099 
rfingers 0.000000 
rthumb 8.718023 -47.639046 
lclavicle 0.000000 0.000000 
lhumerus -36.145822 20.393174 80.142598 
lradius 32.769308 
lwrist -43.214035 
lhand -19.063388 0.520164 
lfingers 0.000000 
lthumb 7.243960 30.376168 
rfemur -40.980488 5.726600 9.550994 
rtibia 27.843063 
rfoot -2.235263 -10.377785 
rtoes -31.301016 
lfemur 8.665910 -4.425820 -23.587878 
ltibia 23.579970 
lfoot -14.363915 -0.145738 
ltoes -37.374155 
7
root -7.781537 16.624667 -23.645812 7.625866 11.671854 2.730980
lowerback -12.640005 -0.394771 -1.203997 
upperback 2.482527 -0.429302 0.968552 
thorax 9.810284 -0.311027 1.632727 
lowerneck 0.049769 -3.302765 5.556366 
upperneck 12.687635 -4.893263 -4.577939 
head 3.904915 -2.646340 -2.697148 
rclavicle 0.000000 0.000000 
rhumerus -48.155563 -21.783794 -68.520849 
rradius 34.044237 
rwrist 26.627206 
rhand -17.545669 -17.876643 
rfingers 0.000000 
rthumb 8.708790 -47.676998 
lclavicle 0.000000 0.000000 
lhumerus -36.216015 20.548174 80.145751 
lradius 32.849119 
lwrist -43.007959 
lhand -19.169563 0.577429 
lfingers 0.000000 
lthumb 7.141470 30.436890 
rfemur -41.017353 5.536973 9.846665 
rtibia 28.024423 
rfoot -1.654411 -10.077720 
rtoes -32.292610 
lfemur 8.555230 -4.203873 -23.479639 
ltibia 23.987666 
lfoot -14.124149 -0.016970 
ltoes -37.692013 
8
root -7.789494 16.626407 -23.598933 7.655639 11.506078 2.703494
lowerback -12.606035 -0.358663 -1.186590 
upperback 2.511389 -0.389338 1.015852 
thorax 9.820976 -0.293018 1.682222 
lowerneck 0.072929 -3.278430 5.563597 
upperneck 12.555782 -4.842916 -4.626785 
head 3.854972 -2.619386 -2.708306 
rclavicle 0.000000 0.000000 
rhumerus -48.029477 -21.790523 -68.529297 
rradius 33.952630 
rwrist 26.623747 
rhand -17.570485 -17.925496 
rfingers 0.000000 
rthumb 8.684837 -47.726848 
lclavicle 0.000000 0.000000 
lhumerus -36.277126 20.706826 80.178781 
lradius 32.887179 
lwrist -42.754765 
lhand -19.340171 0.647447 
lfingers 0.000000 
lthumb 6.976757 30.512475 
rfemur -41.056362 5.408297 10.082787 
rtibia 28.225935 
rfoot -1.159902 -9.821154 
rtoes -33.007496 
lfemur 8.442995 -3.977246 -23.381148 
ltibia 24.394337 
lfoot -13.856240 0.090052 
ltoes -38.005217 
9
root -7.798108 16.628481 -23.547600 7.662193 11.299803 2.714864
lowerback -12.506047 -0.318752 -1.145742 
upperback 2.532861 -0.342537 1.007182 
thorax 9.783930 -0.267691 1.659422 
lowerneck 0.174123 -3.242804 5.626462 
upperneck 12.375388 -4.777793 -4.651475 
head 3.773499 -2.581364 -2.716546 
rclavicle 0.000000 0.000000 
rhumerus -47.934173 -21.957478 -68.490515 
rradius 33.800267 
rwrist 26.957657 
rhand -17.548906 -17.925419 
rfingers 0.000000 
rthumb 8.705695 -47.725850 
lclavicle 0.000000 0.000000 
lhumerus -36.384103 20.804126 80.083554 
lradius 32.981638 
lwrist -42.514009 
lhand -19.304768 0.715889 
lfingers 0.000000 
lthumb 7.010962 30.579748 
rfemur -41.105973 5.354025 10.270323 
rtibia 28.513153 
rfoot -0.786855 -9.476416 
rtoes -32.656999 
lfemur 8.356737 -3.772731 -23.343365 
ltibia 24.834532 
lfoot -13.589834 0.261929 
ltoes -38.121717 
